<svg width="32" height="32" xmlns="http://www.w3.org/2000/svg" xmlns:xlink="http://www.w3.org/1999/xlink" xml:space="preserve" overflow="hidden"><defs><clipPath id="clip0"><rect x="82" y="179" width="32" height="32"/></clipPath></defs><g clip-path="url(#clip0)" transform="translate(-82 -179)"><path d="M97 199 91 199C89.3431 199 88 200.343 88 202L88 204 90 204 90 202C90 201.448 90.4477 201 91 201L97 201C97.5523 201 98 201.448 98 202L98 204 100 204 100 202C100 200.343 98.6569 199 97 199Z"/><path d="M94 198C96.2091 198 98 196.209 98 194 98 191.791 96.2091 190 94 190 91.7909 190 90 191.791 90 194 90 196.209 91.7909 198 94 198ZM94 192C95.1046 192 96 192.895 96 194 96 195.105 95.1046 196 94 196 92.8954 196 92 195.105 92 194 92 192.895 92.8954 192 94 192Z"/><path d="M110 198 110 207 86 207 86 187 98 187 98 185 86 185C84.8954 185 84 185.895 84 187L84 207C84 208.105 84.8954 209 86 209L110 209C111.105 209 112 208.105 112 207L112 198Z"/><path d="M102 198 108 198 108 200 102 200Z"/><path d="M104 202 108 202 108 204 104 204Z"/><path d="M114 189 114 187 111.899 187C111.77 186.374 111.521 185.779 111.167 185.247L112.657 183.757 111.243 182.343 109.753 183.833C109.221 183.479 108.626 183.23 108 183.101L108 181 106 181 106 183.101C105.374 183.23 104.779 183.479 104.247 183.833L102.757 182.343 101.343 183.757 102.833 185.247C102.479 185.779 102.23 186.374 102.101 187L100 187 100 189 102.101 189C102.23 189.626 102.479 190.221 102.833 190.753L101.343 192.243 102.757 193.657 104.247 192.167C104.779 192.521 105.374 192.77 106 192.899L106 195 108 195 108 192.899C108.626 192.77 109.221 192.521 109.753 192.167L111.243 193.657 112.657 192.243 111.167 190.753C111.521 190.221 111.77 189.626 111.899 189ZM107 191C105.343 191 104 189.657 104 188 104 186.343 105.343 185 107 185 108.657 185 110 186.343 110 188 109.998 189.656 108.656 190.998 107 191Z"/></g></svg>