<svg width="32" height="32" xmlns="http://www.w3.org/2000/svg" xmlns:xlink="http://www.w3.org/1999/xlink" xml:space="preserve" overflow="hidden"><defs><clipPath id="clip0"><rect x="83" y="246" width="32" height="32"/></clipPath></defs><g clip-path="url(#clip0)" transform="translate(-83 -246)"><path d="M110 271 104 271C102.343 271 101 272.343 101 274L101 276 103 276 103 274C103 273.448 103.448 273 104 273L110 273C110.552 273 111 273.448 111 274L111 276 113 276 113 274C113 272.343 111.657 271 110 271Z"/><path d="M103 266C103 268.209 104.791 270 107 270 109.209 270 111 268.209 111 266 111 263.791 109.209 262 107 262 104.791 262 103 263.791 103 266ZM109 266C109 267.105 108.105 268 107 268 105.895 268 105 267.105 105 266 105 264.895 105.895 264 107 264 108.105 264 109 264.895 109 266Z"/><path d="M89 267 89 266 87 266 87 267C87 270.866 90.134 274 94 274L97 274 97 272 94 272C91.2386 272 89 269.761 89 267Z"/><path d="M102 256 109 256 109 258 102 258Z"/><path d="M102 252 112 252 112 254 102 254Z"/><path d="M102 248 112 248 112 250 102 250Z"/><path d="M94 257 88 257C86.3431 257 85 258.343 85 260L85 262 87 262 87 260C87 259.448 87.4477 259 88 259L94 259C94.5523 259 95 259.448 95 260L95 262 97 262 97 260C97 258.343 95.6569 257 94 257Z"/><path d="M91 256C93.2091 256 95 254.209 95 252 95 249.791 93.2091 248 91 248 88.7909 248 87 249.791 87 252 87 254.209 88.7909 256 91 256ZM91 250C92.1046 250 93 250.895 93 252 93 253.105 92.1046 254 91 254 89.8954 254 89 253.105 89 252 89 250.895 89.8954 250 91 250Z"/></g></svg>