<svg width="32" height="32" xmlns="http://www.w3.org/2000/svg" xmlns:xlink="http://www.w3.org/1999/xlink" xml:space="preserve" overflow="hidden"><defs><clipPath id="clip0"><rect x="78" y="297" width="32" height="32"/></clipPath></defs><g clip-path="url(#clip0)" transform="translate(-78 -297)"><path d="M98.8851 316.471C100.372 314.396 100.372 311.604 98.8851 309.529L101 307.414 102.293 308.707C102.683 309.098 103.316 309.098 103.706 308.707 103.707 308.707 103.707 308.707 103.707 308.707L107.707 304.707C108.098 304.317 108.098 303.684 107.708 303.294 107.707 303.293 107.707 303.293 107.707 303.293L103.707 299.293C103.317 298.903 102.684 298.902 102.294 299.292 102.293 299.293 102.293 299.293 102.293 299.293L98.293 303.293C97.9025 303.683 97.9023 304.316 98.2924 304.706 98.2926 304.707 98.2928 304.707 98.293 304.707L99.5859 306 97.4711 308.115C95.3958 306.628 92.6042 306.628 90.5289 308.115L88 305.586 88 299 80 299 80 307 86.5859 307 89.1149 309.529C87.6284 311.604 87.6284 314.396 89.1149 316.471L87 318.586 85.707 317.293C85.3169 316.902 84.6841 316.902 84.2936 317.292 84.2934 317.293 84.2932 317.293 84.293 317.293L80.293 321.293C79.9025 321.683 79.9023 322.316 80.2924 322.706 80.2926 322.707 80.2928 322.707 80.293 322.707L84.293 326.707C84.6832 327.098 85.316 327.098 85.7065 326.707 85.7067 326.707 85.7068 326.707 85.707 326.707L89.707 322.707C90.0975 322.317 90.0977 321.684 89.7076 321.294 89.7074 321.293 89.7072 321.293 89.707 321.293L88.4141 320 90.5289 317.885C92.6042 319.372 95.3958 319.372 97.4711 317.885L100 320.414 100 327 108 327 108 319 101.414 319ZM103 301.414 105.586 304 103 306.586 100.414 304ZM85 324.586 82.4141 322 85 319.414 87.5859 322ZM86 305 82 305 82 301 86 301ZM90 313C90 310.791 91.7909 309 94 309 96.2091 309 98 310.791 98 313 98 315.209 96.2091 317 94 317 91.7919 316.997 90.0025 315.208 90 313ZM102 321 106 321 106 325 102 325Z"/></g></svg>