<svg width="32" height="32" xmlns="http://www.w3.org/2000/svg" xmlns:xlink="http://www.w3.org/1999/xlink" xml:space="preserve" overflow="hidden"><defs><clipPath id="clip0"><rect x="77" y="329" width="32" height="32"/></clipPath></defs><g clip-path="url(#clip0)" transform="translate(-77 -329)"><path d="M103 358 102.83 358C83.18 356.87 80.39 340.29 80 335.23 79.8681 333.578 81.1 332.133 82.7516 332.001 82.7544 332 82.7572 332 82.76 332L88.27 332C89.0896 331.999 89.8267 332.499 90.13 333.26L91.65 337C91.9492 337.743 91.776 338.593 91.21 339.16L89.08 341.31C89.7615 345.183 92.7889 348.218 96.66 348.91L98.83 346.76C99.4055 346.2 100.26 346.039 101 346.35L104.77 347.86C105.52 348.173 106.006 348.908 106 349.72L106 355C106 356.657 104.657 358 103 358ZM83 334C82.4477 334 82 334.448 82 335L82 335.08C82.46 341 85.41 355 102.94 356 103.491 356.034 103.966 355.615 104 355.064 104 355.062 104 355.061 104 355.06L104 349.72 100.23 348.21 97.36 351.06 96.88 351C88.18 349.91 87 341.21 87 341.12L86.94 340.64 89.78 337.77 88.28 334Z"/></g></svg>