<svg width="32" height="32" xmlns="http://www.w3.org/2000/svg" xmlns:xlink="http://www.w3.org/1999/xlink" xml:space="preserve" overflow="hidden"><defs><clipPath id="clip0"><rect x="78" y="362" width="32" height="32"/></clipPath></defs><g clip-path="url(#clip0)" transform="translate(-78 -362)"><path d="M105 378.76C105 378.51 105 378.26 105 378 105 377.74 105 377.49 105 377.23L106.92 375.55C107.651 374.906 107.811 373.829 107.3 373L104.94 369C104.583 368.382 103.924 368.001 103.21 368 102.993 367.998 102.777 368.032 102.57 368.1L100.14 368.92C99.7205 368.641 99.2828 368.391 98.83 368.17L98.32 365.65C98.1313 364.7 97.2886 364.021 96.32 364.04L91.64 364.04C90.6714 364.021 89.8287 364.7 89.64 365.65L89.13 368.17C88.6739 368.391 88.233 368.641 87.81 368.92L85.43 368.06C85.2213 368.006 85.0052 367.985 84.79 368 84.0762 368.001 83.4169 368.382 83.06 369L80.7 373C80.2186 373.827 80.3905 374.879 81.11 375.51L83 377.24C83 377.49 83 377.74 83 378 83 378.26 83 378.51 83 378.77L81.11 380.45C80.3692 381.086 80.196 382.164 80.7 383L83.06 387C83.4169 387.618 84.0762 387.999 84.79 388 85.0073 388.002 85.2235 387.968 85.43 387.9L87.86 387.08C88.2795 387.359 88.7172 387.609 89.17 387.83L89.68 390.35C89.8687 391.3 90.7114 391.979 91.68 391.96L96.4 391.96C97.3686 391.979 98.2113 391.3 98.4 390.35L98.91 387.83C99.3661 387.609 99.807 387.359 100.23 387.08L102.65 387.9C102.856 387.968 103.073 388.002 103.29 388 104.004 387.999 104.663 387.618 105.02 387L107.3 383C107.781 382.173 107.609 381.121 106.89 380.49ZM103.21 386 99.78 384.84C98.9771 385.52 98.0594 386.052 97.07 386.41L96.36 390 91.64 390 90.93 386.45C89.9484 386.082 89.0357 385.551 88.23 384.88L84.79 386 82.43 382 85.15 379.6C84.9651 378.565 84.9651 377.505 85.15 376.47L82.43 374 84.79 370 88.22 371.16C89.0229 370.48 89.9406 369.948 90.93 369.59L91.64 366 96.36 366 97.07 369.55C98.0516 369.918 98.9643 370.449 99.77 371.12L103.21 370 105.57 374 102.85 376.4C103.035 377.435 103.035 378.495 102.85 379.53L105.57 382Z"/><path d="M94 384C90.6863 384 88 381.314 88 378 88 374.686 90.6863 372 94 372 97.3137 372 100 374.686 100 378 100.033 381.28 97.401 383.967 94.1206 384 94.0804 384 94.0402 384 94 384ZM94 374C91.8412 373.95 90.0503 375.659 90 377.818 89.9986 377.879 89.9986 377.939 90 378 89.9497 380.159 91.659 381.95 93.8179 382 93.8786 382.001 93.9393 382.001 94 382 96.1588 382.05 97.9497 380.341 98 378.182 98.0014 378.121 98.0014 378.061 98 378 98.0503 375.841 96.341 374.05 94.1821 374 94.1214 373.999 94.0607 373.999 94 374Z"/></g></svg>