<svg width="26" height="26" xmlns="http://www.w3.org/2000/svg" xmlns:xlink="http://www.w3.org/1999/xlink" xml:space="preserve" overflow="hidden"><defs><clipPath id="clip0"><rect x="0" y="0" width="26" height="26"/></clipPath></defs><g clip-path="url(#clip0)"><path d="M13 2.70833C7.31442 2.70669 2.70402 7.31442 2.70237 13 2.70073 18.6856 7.30847 23.296 12.994 23.2976 18.6796 23.2993 23.29 18.6915 23.2917 13.006 23.2917 13.0049 23.2917 13.0038 23.2917 13.0027 23.2946 7.32027 18.6906 2.71131 13.0081 2.70833 13.0054 2.70833 13.0027 2.70833 13 2.70833ZM13 22.7557C7.61359 22.7573 3.24569 18.3921 3.24404 13.0057 3.24239 7.61927 7.60763 3.25138 12.994 3.24973 18.3805 3.24808 22.7483 7.61332 22.75 12.9997 22.75 13.001 22.75 13.0022 22.75 13.0035 22.7446 18.3866 18.383 22.7495 13 22.7565Z"/><path d="M11.2396 16.2733 7.85417 12.8879 7.47121 13.2708 11.2396 17.0392 19.2059 9.07292 18.8229 8.68996 11.2396 16.2733Z"/></g></svg>