<svg width="118" height="28" xmlns="http://www.w3.org/2000/svg" xmlns:xlink="http://www.w3.org/1999/xlink" xml:space="preserve" overflow="hidden"><defs><clipPath id="clip0"><rect x="0" y="0" width="118" height="28"/></clipPath></defs><g clip-path="url(#clip0)"><path d="M54.4204 21.7987 60.6028 21.7987C61.6714 21.7987 62.4957 21.5239 63.0758 20.9744 63.6712 20.4248 63.9612 19.6463 63.9612 18.6235 63.9612 17.6313 63.6712 16.868 63.0758 16.349 62.4805 15.83 61.6714 15.5552 60.6028 15.5552L54.4204 15.5552 54.4204 21.7987ZM54.4204 13.0365 60.1296 13.0365C60.8929 13.067 61.6409 12.8075 62.2362 12.319 62.801 11.8458 63.0758 11.1589 63.0758 10.2582 63.0758 9.25071 62.8163 8.53325 62.3126 8.12109 61.8088 7.70893 61.0761 7.51048 60.1296 7.51048L54.4204 7.51048 54.4204 13.0365ZM50.9094 4.65589 60.6181 4.65589C62.4041 4.65589 63.8543 5.06805 64.9229 5.89237 66.0067 6.71669 66.5563 7.95317 66.5563 9.61708 66.5868 10.533 66.3273 11.4336 65.8083 12.1969 65.274 12.9449 64.5413 13.525 63.7017 13.8608L63.7017 13.9219C64.9382 14.1814 65.8693 14.7614 66.4952 15.6774 67.1211 16.578 67.4417 17.7229 67.4417 19.0815 67.4417 19.8295 67.289 20.5775 66.999 21.2797 66.7089 21.9666 66.2662 22.5772 65.6862 23.0505 64.9992 23.5847 64.236 23.9816 63.3964 24.2259 62.3126 24.5312 61.1829 24.6838 60.0686 24.6533L50.9094 24.6533 50.9094 4.65589Z" fill="#04505C" transform="matrix(1 0 0 1.00232 0.0076326 0)"/><path d="M78.4326 17.4023C77.8983 17.7382 77.2724 17.9366 76.6466 17.9824 75.9291 18.0435 75.2269 18.1503 74.5094 18.2724 74.1736 18.3335 73.853 18.4098 73.5325 18.5167 73.2272 18.6083 72.9524 18.7457 72.6929 18.9289 72.4486 19.112 72.2502 19.3563 72.1128 19.6311 71.9602 19.9669 71.8838 20.318 71.8991 20.6843 71.8838 21.0049 71.9907 21.3255 72.2044 21.585 72.4028 21.8292 72.6624 22.0277 72.9524 22.1651 73.2577 22.3177 73.5783 22.4093 73.8988 22.4551 74.2041 22.5162 74.5247 22.5314 74.8453 22.5467 75.2269 22.5467 75.6085 22.5009 75.9902 22.4093 76.4023 22.3177 76.7992 22.1498 77.1503 21.9361 77.5167 21.7224 77.822 21.4171 78.0662 21.0812 78.3257 20.6996 78.4479 20.2569 78.4326 19.799L78.4326 17.4023ZM81.623 21.4323C81.6078 21.7224 81.6536 22.0124 81.7757 22.2719 81.9131 22.4551 82.1573 22.5467 82.3863 22.5162L82.7221 22.5162C82.8748 22.5162 83.0274 22.5009 83.1801 22.4551L83.1801 24.6686C83.0732 24.6991 82.9206 24.7449 82.7526 24.7907 82.5847 24.8365 82.3863 24.8823 82.2031 24.9128 82.0199 24.9433 81.8367 24.9739 81.6383 25.0044 81.4856 25.0197 81.3177 25.0349 81.1651 25.0349 80.6003 25.0655 80.0202 24.9281 79.5317 24.638 79.1043 24.3785 78.8142 23.9206 78.6921 23.2642 78.0357 23.89 77.2267 24.3633 76.3565 24.6075 75.4864 24.8823 74.5858 25.0197 73.6851 25.0349 73.044 25.0349 72.4181 24.9433 71.8075 24.7754 71.2427 24.6075 70.7084 24.348 70.2199 23.9969 69.762 23.6458 69.3803 23.2031 69.1208 22.6841 68.8461 22.104 68.7087 21.4629 68.7239 20.8217 68.6934 20.0585 68.8613 19.3105 69.2124 18.6388 69.5177 18.0893 69.9757 17.6466 70.51 17.326 71.0595 17.0054 71.6701 16.7765 72.3113 16.6543 72.9829 16.5169 73.6393 16.4101 74.311 16.3338 74.8605 16.2269 75.4101 16.1506 75.9596 16.0895 76.4329 16.059 76.8908 15.9674 77.3488 15.8453 77.6999 15.7537 78.0357 15.5858 78.3105 15.3263 78.57 15.0362 78.6921 14.6546 78.6616 14.273 78.6768 13.9066 78.57 13.5555 78.3715 13.2655 78.1884 13.006 77.9288 12.7922 77.6388 12.6549 77.3335 12.5175 77.0129 12.4106 76.6771 12.3801 76.3413 12.3343 76.0054 12.3038 75.6696 12.3038 74.8911 12.2732 74.1125 12.4717 73.4409 12.8686 72.8608 13.2502 72.4944 13.9066 72.4639 14.6088L69.2735 14.6088C69.2887 13.7845 69.5177 12.9907 69.9299 12.2732 70.3115 11.6626 70.8305 11.1589 71.4411 10.7925 72.067 10.4109 72.7692 10.1514 73.5019 10.014 74.2805 9.86132 75.059 9.80026 75.8528 9.80026 76.555 9.80026 77.2572 9.86132 77.9594 10.014 78.6158 10.1514 79.2417 10.3956 79.8217 10.7467 80.356 11.0673 80.814 11.51 81.1498 12.0442 81.5009 12.6243 81.6688 13.296 81.6536 13.9829L81.623 21.4323Z" fill="#04505C" transform="matrix(1 0 0 1.00232 0.0076326 0)"/><path d="M84.4013 10.1819 87.4238 10.1819 87.4238 12.3038 87.4696 12.3648C87.9428 11.5863 88.5992 10.9299 89.3778 10.4719 90.1715 10.014 91.0722 9.76973 91.9881 9.78499 93.5604 9.78499 94.8122 10.1972 95.7433 11.0215 96.6593 11.8458 97.1172 13.0823 97.1172 14.7157L97.1172 24.6533 93.9268 24.6533 93.9268 15.5552C93.881 14.4256 93.652 13.586 93.1941 13.0823 92.7361 12.5785 92.0492 12.319 91.0875 12.319 90.5837 12.3038 90.0799 12.4106 89.622 12.6091 89.2098 12.7922 88.8282 13.067 88.5229 13.4181 88.2176 13.7845 87.9734 14.1966 87.8207 14.6393 87.6528 15.1125 87.5612 15.6163 87.5765 16.1201L87.5765 24.6533 84.386 24.6533 84.4013 10.1819Z" fill="#04505C" transform="matrix(1 0 0 1.00232 0.0076326 0)"/><path d="M99.8955 4.65589 99.8955 24.6533 103.086 24.6533 103.086 19.4784 104.979 17.6313 109.406 24.6533 113.298 24.6533 107.223 15.4942 112.764 10.1819 108.841 10.1819 103.086 16.0285 103.086 4.65589Z" fill="#04505C" transform="matrix(1 0 0 1.00232 0.0076326 0)"/><path d="M41.6282 24.7144 41.6282 11.8611 46.5283 11.8611 46.5283 4.65589 28.8512 4.65589 28.8512 11.8611 33.7208 11.8611 33.7208 24.7144Z" fill="#04505C" transform="matrix(1 0 0 1.00232 0.0076326 0)"/><path d="M20.9744 11.8611 28.8665 11.8611 28.8665 24.7296 20.9744 24.7296Z" fill="#04505C" transform="matrix(1 0 0 1.00232 0.0076326 0)"/><path d="M20.9744 3.05304 20.9744 11.8763 30.622 3.05304Z" fill="#04505C" transform="matrix(1 0 0 1.00232 0.0076326 0)"/><path d="M10.6551 25.1265C15.5094 25.1265 19.7684 21.8292 20.9591 17.1276L13.5402 17.1276C12.09 18.7151 9.63234 18.8373 8.0295 17.3871 6.42665 15.9369 6.31979 13.4792 7.76999 11.8763 9.22018 10.2887 11.6779 10.1666 13.2807 11.6168 13.3723 11.6931 13.4639 11.7847 13.5402 11.8763L20.9591 11.8763C19.5242 6.18241 13.7234 2.73247 8.0295 4.1674 2.33558 5.60233-1.11436 11.4031 0.320569 17.097 1.52652 21.8292 5.78551 25.1265 10.6551 25.1265" fill="#04505C" transform="matrix(1 0 0 1.00232 0.0076326 0)"/><path d="M113.955 22.6536 113.955 22.6536C114.001 21.5392 114.932 20.6691 116.046 20.7149 117.099 20.7454 117.939 21.6003 117.985 22.6383L117.985 22.6536C117.939 23.7679 117.008 24.638 115.893 24.5922 114.84 24.5464 114.001 23.7069 113.955 22.6536ZM117.771 22.6536 117.771 22.6536C117.786 21.6613 116.993 20.8523 116.016 20.837 116.016 20.837 116.016 20.837 116.016 20.837L115.97 20.837C114.977 20.837 114.168 21.6308 114.153 22.623 114.153 22.623 114.153 22.623 114.153 22.623L114.153 22.623C114.153 22.6383 114.153 22.6383 114.153 22.6536L114.153 22.6536C114.184 23.6458 115.008 24.4396 116.016 24.4091 116.977 24.3785 117.74 23.6 117.771 22.6536ZM115.145 21.5239 116.092 21.5239C116.336 21.5087 116.565 21.585 116.733 21.7529 116.855 21.8598 116.916 22.0277 116.901 22.1803L116.901 22.1803C116.916 22.4856 116.702 22.7451 116.412 22.8062L116.977 23.6 116.489 23.6 115.985 22.8673 115.558 22.8673 115.558 23.6 115.13 23.6 115.13 21.5239ZM116.061 22.5467C116.321 22.5467 116.473 22.4246 116.473 22.2109L116.473 22.2109C116.473 21.9972 116.321 21.8903 116.061 21.8903L115.558 21.8903 115.558 22.562 116.061 22.5467Z" fill="#04505C" transform="matrix(1 0 0 1.00232 0.0076326 0)"/></g></svg>